#!OML:ASF F:\VICON\USERDATA\INSTALL\rory3\rory3.ASF
:FULLY-SPECIFIED
:DEGREES
112
root 1.12764 17.7979 2.64069 184.474 15.1021 184.81
lowerback 31.2449 -1.85151 -0.524178
upperback 5.15932 -0.741853 3.80159
thorax -10.5096 0.251691 4.50562
lowerneck -14.4247 2.37736 0.861446
upperneck 26.6525 5.53164 -3.84574
head 11.152 2.53301 -0.701326
rclavicle -3.97569e-015 2.74323e-014
rhumerus -12.9883 15.3029 -86.9002
rradius 49.8401
rwrist 1.88787
rhand -11.2992 5.94542
rfingers 7.12502
rthumb 14.7323 -23.5111
lclavicle -3.97569e-015 2.74323e-014
lhumerus -13.749 -15.6077 93.3319
lradius 49.89
lwrist -27.1066
lhand -5.18968 59.1942
lfingers 7.12502
lthumb 20.6112 88.1199
rfemur -22.4518 0.763783 20.3731
rtibia 37.731
rfoot -18.3401 -1.48565
rtoes -13.7742
lfemur -20.2593 -0.216359 -6.12265
ltibia 47.3213
lfoot -16.08 12.7542
ltoes -10.1531
113
root 1.14946 17.7984 2.64453 184.617 15.339 184.775
lowerback 31.3127 -1.80633 -0.409498
upperback 5.02014 -0.638416 3.95643
thorax -10.7042 0.294846 4.57643
lowerneck -13.9485 2.37547 1.14832
upperneck 26.2217 5.60273 -4.49985
head 10.9284 2.53048 -0.985309
rclavicle 4.27387e-015 -9.80008e-014
rhumerus -12.6203 15.4744 -87.0267
rradius 49.6291
rwrist 2.23803
rhand -11.1514 6.22238
rfingers 7.12502
rthumb 14.8746 -23.2236
lclavicle 4.27387e-015 -9.80008e-014
lhumerus -14.7764 -15.1167 93.9676
lradius 50.5033
lwrist -24.5939
lhand -5.95281 59.1507
lfingers 7.12502
lthumb 19.8777 88.1541
rfemur -22.5416 0.853489 20.4171
rtibia 37.5174
rfoot -18.2827 -1.47188
rtoes -13.9472
lfemur -21.0965 0.461665 -6.49338
ltibia 47.9677
lfoot -16.1558 11.3577
ltoes -11.6374
114
root 1.16355 17.812 2.60956 184.412 16.3137 184.82
lowerback 31.1275 -1.56853 -0.256004
upperback 5.3704 -0.244798 3.95311
thorax -10.2697 0.483545 4.33184
lowerneck -14.3302 2.25362 1.12734
upperneck 26.3275 5.46507 -4.62967
head 11.0433 2.43712 -1.04227
rclavicle 5.01931e-014 -7.33515e-014
rhumerus -11.797 15.378 -87.1158
rradius 49.318
rwrist 2.73626
rhand -11.206 6.72313
rfingers 7.12502
rthumb 14.822 -22.7268
lclavicle 5.01931e-014 -7.33515e-014
lhumerus -15.2437 -14.7069 94.278
lradius 51.1682
lwrist -22.4565
lhand -4.83631 59.5252
lfingers 7.12502
lthumb 20.9507 88.4137
rfemur -22.1722 1.39938 20.4443
rtibia 37.3371
rfoot -18.3947 -1.20857
rtoes -15.2924
lfemur -21.0595 1.39596 -6.89881
ltibia 48.466
lfoot -16.5289 10.2909
ltoes -12.5048
115
root 1.18155 17.8238 2.57855 184.287 17.1605 184.968
lowerback 31.0523 -1.24565 -0.0020379
upperback 5.38467 0.2746 4.1202
thorax -10.2659 0.719911 4.18102
lowerneck -13.8013 1.9362 0.67259
upperneck 26.3796 5.19364 -4.65263
head 10.9385 2.29564 -1.0149
rclavicle 1.98785e-015 -1.78906e-014
rhumerus -11.7994 14.9838 -87.0422
rradius 49.1642
rwrist 3.22544
rhand -11.2874 7.53612
rfingers 7.12502
rthumb 14.7436 -21.9195
lclavicle 1.98785e-015 -1.78906e-014
lhumerus -16.437 -14.3001 95.0321
lradius 51.9925
lwrist -20.8438
lhand -4.09053 59.36
lfingers 7.12502
lthumb 21.667 88.1676
rfemur -21.7742 1.90528 20.5989
rtibia 37.0507
rfoot -18.267 -0.861042
rtoes -15.7035
lfemur -21.1039 2.19423 -7.1288
ltibia 48.7575
lfoot -16.9522 9.22555
ltoes -12.3599
116
root 1.21437 17.8209 2.61007 184.692 16.5158 184.834
lowerback 31.0194 -1.31749 0.102823
upperback 5.03586 0.229214 4.46033
thorax -10.646 0.689492 4.51281
lowerneck -13.5124 1.67657 0.415717
upperneck 26.5408 5.04956 -4.96526
head 10.9421 2.192 -1.10376
rclavicle 1.63003e-014 -3.37934e-014
rhumerus -11.8843 14.5627 -86.9183
rradius 49.1691
rwrist 3.50781
rhand -11.4209 8.36322
rfingers 7.12502
rthumb 14.615 -21.1018
lclavicle 1.63003e-014 -3.37934e-014
lhumerus -17.7741 -13.999 95.8394
lradius 52.8257
lwrist -19.4883
lhand -4.38951 58.7381
lfingers 7.12502
lthumb 21.3799 87.5785
rfemur -22.1047 1.59592 20.6214
rtibia 36.7681
rfoot -18.0697 -1.18377
rtoes -16.1484
lfemur -22.596 2.14237 -7.4163
ltibia 48.9185
lfoot -16.7157 7.88756
ltoes -12.3852
117
root 1.22601 17.8531 2.53727 184.429 17.1541 184.577
lowerback 30.4337 -1.14531 0.226609
upperback 5.53166 0.460813 4.25439
thorax -10.5428 0.827739 4.46189
lowerneck -13.4485 1.45419 0.441893
upperneck 26.7673 4.86806 -5.2469
head 11.0181 2.09155 -1.23346
rclavicle -2.76311e-014 -2.42517e-014
rhumerus -11.9801 14.312 -86.9752
rradius 49.232
rwrist 3.58172
rhand -11.8163 8.87595
rfingers 7.12502
rthumb 14.234 -20.6163
lclavicle -2.76311e-014 -2.42517e-014
lhumerus -19.0028 -13.8524 96.3581
lradius 53.4094
lwrist -18.3248
lhand -5.22621 57.6127
lfingers 7.12502
lthumb 20.5761 86.5422
rfemur -21.4524 1.70897 20.2734
rtibia 36.4208
rfoot -18.337 -0.673626
rtoes -16.2888
lfemur -22.3245 2.50409 -8.18573
ltibia 48.7773
lfoot -17.1119 7.59162
ltoes -13.6594
118
root 1.24342 17.8775 2.50172 184.262 17.0084 184.175
lowerback 30.364 -1.17497 0.322584
upperback 5.43179 0.432284 4.22692
thorax -10.6218 0.805331 4.38671
lowerneck -13.3017 1.23035 0.46339
upperneck 26.8803 4.59888 -5.323
head 11.024 1.97396 -1.30149
rclavicle 2.10712e-014 6.36111e-014
rhumerus -12.2348 14.1058 -87.096
rradius 49.3847
rwrist 3.59596
rhand -12.4723 9.06809
rfingers 7.12502
rthumb 13.6018 -20.4676
lclavicle 2.10712e-014 6.36111e-014
lhumerus -20.3746 -13.7584 96.8259
lradius 54.1411
lwrist -16.862
lhand -5.76286 56.7653
lfingers 7.12502
lthumb 20.0603 85.7498
rfemur -21.0295 1.46619 19.853
rtibia 36.1682
rfoot -18.4995 -0.490226
rtoes -15.8813
lfemur -22.6558 2.40692 -8.97212
ltibia 48.6063
lfoot -17.2373 7.27735
ltoes -15.2636
119
root 1.26536 17.8946 2.4743 184.052 17.0692 183.882
lowerback 30.3868 -1.04388 0.365693
upperback 5.4457 0.630392 4.28143
thorax -10.6331 0.89999 4.34755
lowerneck -13.2576 1.02149 0.310592
upperneck 26.8185 4.35251 -5.38209
head 10.982 1.84447 -1.32943
rclavicle -1.39149e-014 -4.92986e-014
rhumerus -12.2521 13.7584 -86.9913
rradius 49.5789
rwrist 3.47107
rhand -13.2626 9.46251
rfingers 7.12502
rthumb 12.84 -20.1226
lclavicle -1.39149e-014 -4.92986e-014
lhumerus -21.6202 -13.8331 97.4473
lradius 54.9096
lwrist -15.2726
lhand -6.28997 56.0384
lfingers 7.12502
lthumb 19.5536 85.0752
rfemur -20.5829 1.55729 19.58
rtibia 35.8586
rfoot -18.4322 -0.74399
rtoes -16.3131
lfemur -22.9216 2.55192 -9.5688
ltibia 48.3515
lfoot -17.3022 6.95883
ltoes -15.5421
120
root 1.28458 17.9016 2.46391 184.03 17.0537 184.013
lowerback 30.4398 -0.966917 0.743008
upperback 5.45528 0.894847 4.45221
thorax -10.6703 1.0221 4.22101
lowerneck -13.1807 0.739999 0.159168
upperneck 26.6877 4.00804 -5.50084
head 10.9059 1.66411 -1.39193
rclavicle -7.95139e-016 8.98507e-014
rhumerus -12.2027 13.2266 -86.8839
rradius 49.7368
rwrist 3.28442
rhand -14.3621 10.361
rfingers 7.12502
rthumb 11.7799 -19.2877
lclavicle -7.95139e-016 8.98507e-014
lhumerus -22.6723 -14.0662 97.9547
lradius 55.6542
lwrist -13.025
lhand -7.11633 55.5641
lfingers 7.12502
lthumb 18.7589 84.6796
rfemur -20.3605 1.71708 19.7863
rtibia 35.6703
rfoot -18.3384 -1.69004
rtoes -17.3421
lfemur -23.4713 2.79042 -9.65771
ltibia 48.169
lfoot -17.2469 6.74365
ltoes -15.6353
121
root 1.30544 17.9038 2.45748 184.138 16.9201 184.294
lowerback 30.7835 -0.90831 1.15182
upperback 4.91264 1.16675 4.89354
thorax -10.7564 1.10255 4.05791
lowerneck -13.0058 0.410977 -0.0675438
upperneck 26.7621 3.66579 -5.61654
head 10.887 1.48779 -1.43953
rclavicle -9.93923e-015 -3.26007e-014
rhumerus -12.4602 12.7322 -86.7587
rradius 49.9882
rwrist 2.99195
rhand -15.4688 10.5278
rfingers 7.12502
rthumb 10.7126 -19.179
lclavicle -9.93923e-015 -3.26007e-014
lhumerus -23.9368 -13.8264 98.4812
lradius 56.8187
lwrist -9.9354
lhand -7.43646 55.6322
lfingers 7.12502
lthumb 18.451 84.7772
rfemur -20.2974 1.95261 20.1748
rtibia 35.5995
rfoot -18.3112 -1.46741
rtoes -15.772
lfemur -24.1964 2.98267 -9.55044
ltibia 48.0441
lfoot -17.3337 6.64718
ltoes -15.6987
122
root 1.32997 17.9141 2.44117 184.086 16.7686 184.057
lowerback 30.8912 -0.741636 1.03953
upperback 4.77695 1.38029 5.12124
thorax -10.9824 1.20733 4.28502
lowerneck -12.9845 0.107054 -0.314132
upperneck 26.968 3.42387 -5.84015
head 10.9552 1.34128 -1.50903
rclavicle -8.74653e-015 9.30312e-014
rhumerus -12.667 12.2315 -86.51
rradius 50.216
rwrist 2.62813
rhand -16.5544 10.1818
rfingers 7.12502
rthumb 9.66532 -19.5765
lclavicle -8.74653e-015 9.30312e-014
lhumerus -25.2798 -13.5387 99.125
lradius 58.2141
lwrist -6.64528
lhand -8.25083 55.7025
lfingers 7.12502
lthumb 17.6675 84.9198
rfemur -20.2028 2.14731 20.0094
rtibia 35.507
rfoot -18.2823 -2.0297
rtoes -15.9546
lfemur -24.784 3.02361 -9.99422
ltibia 47.8061
lfoot -17.4356 6.52231
ltoes -16.0548
